<svg width="48" height="48" viewBox="0 0 48 48" fill="none" xmlns="http://www.w3.org/2000/svg">
<mask id="mask0_2126_24" style="mask-type:alpha" maskUnits="userSpaceOnUse" x="0" y="0" width="48" height="48">
<rect width="48" height="48" fill="#D9D9D9"/>
</mask>
<g mask="url(#mask0_2126_24)">
<path d="M24 20.65L13.15 31.45C12.85 31.75 12.5 31.9 12.1 31.9C11.7 31.9 11.35 31.75 11.05 31.45C10.75 31.15 10.6 30.8 10.6 30.4C10.6 30 10.75 29.65 11.05 29.35L22.95 17.45C23.25 17.15 23.6 17 24 17C24.4 17 24.75 17.15 25.05 17.45L36.95 29.35C37.25 29.65 37.4 30 37.4 30.4C37.4 30.8 37.25 31.15 36.95 31.45C36.65 31.75 36.3 31.9 35.9 31.9C35.5 31.9 35.15 31.75 34.85 31.45L24 20.65Z" fill="#57221B"/>
</g>
</svg>
