<svg width="48" height="48" viewBox="0 0 48 48" fill="none" xmlns="http://www.w3.org/2000/svg">
<mask id="mask0_2127_25" style="mask-type:alpha" maskUnits="userSpaceOnUse" x="0" y="0" width="48" height="48">
<rect width="48" height="48" transform="matrix(1 0 0 -1 0 48)" fill="#D9D9D9"/>
</mask>
<g mask="url(#mask0_2127_25)">
<path d="M24 27.35L13.15 16.55C12.85 16.25 12.5 16.1 12.1 16.1C11.7 16.1 11.35 16.25 11.05 16.55C10.75 16.85 10.6 17.2 10.6 17.6C10.6 18 10.75 18.35 11.05 18.65L22.95 30.55C23.25 30.85 23.6 31 24 31C24.4 31 24.75 30.85 25.05 30.55L36.95 18.65C37.25 18.35 37.4 18 37.4 17.6C37.4 17.2 37.25 16.85 36.95 16.55C36.65 16.25 36.3 16.1 35.9 16.1C35.5 16.1 35.15 16.25 34.85 16.55L24 27.35Z" fill="#57221B"/>
</g>
</svg>
