<svg width="40" height="39" viewBox="0 0 40 39" fill="none" xmlns="http://www.w3.org/2000/svg">
<path d="M10.5226 13.0735C10.6559 14.0026 10.9518 14.9013 11.3971 15.7278C11.871 16.4738 12.4452 17.1517 13.1029 17.7419C14.6428 19.2031 16.7265 19.9479 18.8432 19.7946C20.5526 19.8418 22.2314 19.3339 23.6277 18.347C25.0237 17.3597 26.0627 15.9468 26.5881 14.3194C26.8562 12.4792 26.4237 10.6053 25.3763 9.06825C24.3289 7.53122 22.7429 6.44325 20.9324 6.0195C18.0832 5.53208 13.7221 6.68637 13.3192 10.0896H13.3189C13.1255 11.3753 13.5606 12.6761 14.4886 13.5873C15.4755 14.4867 16.8594 14.8072 18.1412 14.4329C18.7733 14.2659 19.3475 13.9279 19.8001 13.4558C20.2531 12.9841 20.5673 12.3967 20.7086 11.7581C20.7837 11.3948 20.7801 11.0198 20.698 10.658L20.85 10.6789C21.0807 10.7166 21.3092 10.7675 21.5341 10.8323L21.6238 10.8686C21.7743 10.9451 21.9314 11.007 22.0808 11.0865L22.3632 11.2472L22.6089 11.4765C22.5555 11.4256 22.3973 11.189 22.6166 11.486C22.7159 11.6204 22.8122 11.7552 22.8993 11.898V11.8973C23.0714 12.1921 23.1722 12.5231 23.1927 12.8637C23.2099 13.0553 23.2139 13.2461 23.2124 13.4383C23.2143 13.1538 23.2198 13.4032 23.2099 13.4676V13.4672C23.1711 13.7188 23.1183 13.9682 23.0517 14.2136L22.9623 14.497L22.903 14.6373C22.8653 14.7197 22.6001 15.1569 22.6481 15.1082C22.4833 15.3265 22.2969 15.5202 22.1116 15.7216L22.0384 15.8051L21.9589 15.8612L21.704 16.0413V16.041C21.3136 16.3013 20.8833 16.4965 20.4299 16.6178C19.2793 17.0268 18.0382 17.1118 16.8421 16.8635C15.6626 16.6203 14.5764 16.0476 13.7096 15.2111C13.3067 14.7845 13.039 14.263 12.6641 13.8177C12.3147 13.4032 11.9906 12.9699 11.6709 12.5323C11.4922 12.2734 11.1519 12.1819 10.8674 12.3163C10.5825 12.4503 10.4367 12.7707 10.5224 13.0736L10.5226 13.0735Z" fill="#57221B"/>
<path d="M5.60539 16.0988C6.03276 16.9279 6.59014 17.6834 7.25623 18.3364C7.58802 18.677 7.96009 18.9758 8.36473 19.2259C8.71812 19.4321 9.11583 19.5668 9.48204 19.7631C10.2386 20.1693 10.8001 19.0065 10.0724 18.5784C9.74095 18.3345 9.45348 18.0357 9.22313 17.6944C8.95433 17.3659 8.71959 17.0114 8.52184 16.6357C8.16295 15.9589 7.92345 15.2254 7.81395 14.4673C7.75462 14.0286 7.73411 13.5855 7.75169 13.1431C7.75462 13.1805 7.79344 12.7707 7.80186 12.7168C7.83409 12.511 7.87584 12.3063 7.9271 12.1045L8.00804 11.8152L8.01023 11.8101C8.09886 11.6028 8.18602 11.3952 8.28086 11.1905C8.47568 10.7712 8.71482 10.3874 8.94224 9.98672C8.72178 10.3756 8.99607 9.91494 9.10997 9.76883C9.22789 9.61758 9.3502 9.47036 9.47728 9.32644C9.71202 9.05983 9.94859 8.79251 10.1987 8.54019L10.4942 8.25381L10.5224 8.22671C10.3862 8.37429 10.7704 8.02053 10.8363 7.97036C11.1197 7.75466 11.4153 7.55874 11.7134 7.36465C12.0613 7.13796 12.4088 6.91494 12.7721 6.71353C12.9427 6.61904 13.1185 6.53482 13.2895 6.4418L13.2906 6.44107L13.4075 6.38907L13.4078 6.3887C14.1593 6.0635 14.9342 5.79544 15.7263 5.58743C16.1485 5.47537 16.5748 5.38418 17.0025 5.29446L17.0497 5.28457L17.1896 5.26223C17.4002 5.22708 17.6111 5.19522 17.8232 5.16592C18.6867 5.04727 19.5564 4.97916 20.428 4.96158C20.8989 4.95279 21.3699 4.96048 21.8404 4.98465L21.9683 4.99087L22.0499 5.00113C22.2671 5.02676 22.4846 5.04837 22.701 5.07803C23.5825 5.14249 24.4497 5.33621 25.2748 5.65371C25.1312 5.58889 24.9594 5.54166 25.2228 5.64676L25.563 5.78152C25.7596 5.86355 25.9541 5.95035 26.146 6.04226V6.04262C26.5305 6.22427 26.9044 6.42715 27.2666 6.65017L27.3318 6.69155L27.4607 6.78347C27.6343 6.91201 27.8045 7.04459 27.9715 7.18081C28.2894 7.44045 28.5959 7.71365 28.8907 8.00003C29.0749 8.17911 29.2544 8.36294 29.429 8.55118L29.5587 8.68888L29.5653 8.6973C29.8487 9.05216 30.1208 9.41397 30.3702 9.79371C30.6353 10.198 30.8613 10.6202 31.0902 11.0457L31.3051 11.4361L31.3227 11.4885C31.3637 11.6068 31.4187 11.7214 31.463 11.8386C31.623 12.2766 31.7523 12.7252 31.8504 13.1807L31.9028 13.4231L31.9039 13.4363C31.9262 13.652 31.9647 13.8655 31.9856 14.0816C32.0236 14.4661 32.0376 14.8528 32.0277 15.2392C32.0236 15.1718 31.9812 15.6622 31.9709 15.7347C31.9445 15.913 31.913 16.0907 31.8764 16.2675C31.7863 16.7063 31.6523 17.1322 31.5355 17.5639L31.4209 17.9539C31.356 18.1301 31.2846 18.304 31.2085 18.4754C30.836 19.3144 30.6427 20.0834 30.2028 20.914L30.2032 20.9137C30.0563 21.2257 30.1065 21.5948 30.331 21.8567C30.5558 22.1182 30.9133 22.2237 31.2436 22.1255C32.4228 21.7084 33.4646 20.9756 34.2557 20.0069C35.0328 18.9742 35.596 17.7969 35.9128 16.5437C36.5965 14.0974 36.5031 11.4991 35.6462 9.10823C33.7389 4.71294 29.8476 1.49254 25.1734 0.440756C23.034 -0.00858781 20.8367 -0.115154 18.6639 0.124714C16.5999 0.305258 14.5701 0.765215 12.6303 1.49178C10.6443 2.22164 8.84701 3.38581 7.36857 4.89903C5.90991 6.43859 4.94607 8.38025 4.60145 10.4727C4.33741 12.4071 4.6886 14.3755 5.60523 16.0989L5.60539 16.0988Z" fill="#57221B"/>
<path d="M1.04069 10.3576C1.23038 9.56988 1.52738 8.81147 1.92326 8.10394C2.41801 7.30084 2.98011 6.57066 3.40236 5.7225C3.64405 5.23654 4.34239 5.60348 4.1465 6.09347C3.65907 7.41178 3.29249 8.77153 3.05187 10.1562C2.78344 11.4595 2.76403 12.8017 2.99548 14.112C3.23241 15.3593 3.64037 16.5678 4.20841 17.7035L4.30766 17.8943H4.30729C4.69804 18.396 5.04997 18.927 5.35982 19.4825L5.59237 19.8582C5.80221 20.0725 6.00326 20.2951 6.22994 20.4921L6.23031 20.4918C6.59726 20.8444 6.98434 21.1755 7.38897 21.4838L7.56767 21.5831L8.03239 21.8101L8.04924 21.8189L8.18656 21.8629C8.49162 21.9639 8.79521 22.0705 9.09477 22.1862L9.44377 22.3265L9.63419 22.3946C9.87149 22.4675 10.1095 22.5389 10.3494 22.6033V22.603C11.0185 22.7564 11.6959 22.8718 12.3782 22.949C12.7456 23.0043 13.1132 23.0626 13.4817 23.1098L13.8501 23.1516L14.0731 23.16C14.8227 23.1644 15.5756 23.1552 16.3235 23.0911C17.5601 22.9831 18.7764 22.7037 19.9361 22.2613C21.1864 21.813 22.411 21.2971 23.6052 20.7155C25.0049 20.0996 26.3021 19.2723 27.4505 18.2619C27.6988 17.8734 28.499 17.7877 28.4865 18.8416C28.5301 21.6043 27.7658 24.3198 26.2882 26.6544C24.8105 28.9889 22.6832 30.8416 20.1677 31.9845C17.6547 32.8499 14.9041 32.7078 12.4941 31.5876C10.1584 30.687 8.0388 29.3046 6.27358 27.5303C4.51727 25.7095 3.12452 23.5705 2.16986 21.2278C1.98492 20.8543 1.81976 20.4705 1.67036 20.083C1.11591 18.612 0.76325 17.0724 0.622606 15.5065C0.448653 13.7791 0.590379 12.0345 1.04081 10.3576L1.04069 10.3576Z" fill="#57221B"/>
<path d="M19.0135 36.1238C19.2047 35.7532 19.442 35.3976 19.6559 35.0399C20.1312 34.2449 37.2921 20.9324 37.9418 20.3999C37.9455 20.3761 38.7097 19.8927 38.8057 20.2809C39.0221 20.4168 39.1294 20.6742 39.0734 20.9232C39.0243 21.0986 38.965 21.2752 38.8991 21.4517L38.913 21.7011C38.9196 22.164 38.8727 22.6276 38.8423 23.0887C38.7899 24.0174 38.6588 24.9395 38.4516 25.8462C37.9843 27.7132 37.2259 29.4952 36.2037 31.1258C35.1256 32.939 33.693 34.5162 31.9919 35.7639C30.333 37.02 28.4392 37.9308 26.4222 38.4416C25.811 38.594 25.1888 38.698 24.5611 38.7522C23.9737 38.754 23.3877 38.6939 22.8128 38.5727C22.2848 38.4845 21.7926 38.2768 21.2681 38.1842C20.7803 38.0985 18.8108 36.5165 19.0133 36.1236L19.0135 36.1238Z" fill="#57221B"/>
<path d="M0.91788 24.2851C1.47049 24.7762 1.68033 25.5613 2.21754 26.0784C2.76136 26.6017 3.2726 27.1133 3.856 27.5963C4.44158 28.0812 5.00594 28.588 5.59 29.0725C5.87235 29.3065 6.17558 29.5164 6.47367 29.7302L6.58794 29.813L6.70952 29.8899L7.20317 30.2026C8.4897 30.9944 9.78861 31.8187 11.137 32.5021C12.6824 33.0605 14.1586 33.7951 15.5367 34.6906C15.8344 34.9605 16.0454 35.312 16.1439 35.7016C16.242 36.0909 16.2233 36.5007 16.0893 36.8797C15.9524 37.2598 15.7088 37.5927 15.3877 37.8381C15.0665 38.0835 14.6812 38.2311 14.2784 38.2633C13.1977 38.3083 12.1225 38.0882 11.1462 37.6224C10.401 37.3353 9.6795 36.9892 8.98922 36.5879C7.42443 35.7621 6.01115 34.6766 4.81003 33.3773C3.64219 32.1607 2.64534 30.7911 1.84631 29.3058C1.47973 28.5763 1.156 27.8255 0.876936 27.0576C0.48582 26.3212 0.191024 25.5371 0.000223748 24.7252C-0.00600191 24.5055 0.118142 24.3026 0.316264 24.2074C0.514751 24.1122 0.750517 24.1426 0.91788 24.2851Z" fill="#57221B"/>
</svg>
